HIERARCHY
ROOT Hips
{
	OFFSET 0.00000 0.00000 0.00000
	CHANNELS 6 Xposition Yposition Zposition Zrotation Yrotation Xrotation 
	JOINT LHipJoint
	{
		OFFSET 0 0 0
		CHANNELS 3 Zrotation Yrotation Xrotation
		JOINT LeftHip
		{
			OFFSET 1.59801 -1.77853 0.57028
			CHANNELS 3 Zrotation Yrotation Xrotation
			JOINT LeftKnee
			{
				OFFSET 2.39439 -6.57854 0.00000
				CHANNELS 3 Zrotation Yrotation Xrotation
				JOINT LeftAnkle
				{
					OFFSET 2.69334 -7.39989 0.00000
					CHANNELS 3 Zrotation Yrotation Xrotation
					JOINT LeftToe
					{
						OFFSET 0.09553 -0.26245 1.73747
						CHANNELS 3 Zrotation Yrotation Xrotation
						End Site
						{
							OFFSET 0.00000 -0.00000 0.89391
						}
					}
				}
			}
		}
	}
	JOINT RHipJoint
	{
		OFFSET 0 0 0
		CHANNELS 3 Zrotation Yrotation Xrotation
		JOINT RightHip
		{
			OFFSET -1.54704 -1.77852 0.57028
			CHANNELS 3 Zrotation Yrotation Xrotation
			JOINT RightKnee
			{
				OFFSET -2.40286 -6.60180 0.00000
				CHANNELS 3 Zrotation Yrotation Xrotation
				JOINT RightAnkle
				{
					OFFSET -2.63873 -7.24984 0.00000
					CHANNELS 3 Zrotation Yrotation Xrotation
					JOINT RightToe
					{
						OFFSET -0.15631 -0.42945 1.84436
						CHANNELS 3 Zrotation Yrotation Xrotation
						End Site
						{
							OFFSET -0.00000 -0.00000 0.95734
						}
					}
				}
			}
		}
	}
	JOINT lowerback
	{
		OFFSET 0 0 0
		CHANNELS 3 Zrotation Yrotation Xrotation
		JOINT Chest
		{
			OFFSET -0.00436 1.89866 -0.04018
			CHANNELS 3 Zrotation Yrotation Xrotation
			JOINT Chest2
			{
				OFFSET 0.02031 1.88273 0.09634
				CHANNELS 3 Zrotation Yrotation Xrotation
				JOINT lowerneck
				{
					OFFSET 0 0 0
					CHANNELS 3 Zrotation Yrotation Xrotation
					JOINT Neck
					{
						OFFSET -0.13105 1.89371 0.23083
						CHANNELS 3 Zrotation Yrotation Xrotation
						JOINT Head
						{
							OFFSET 0.17062 1.83990 -0.54062
							CHANNELS 3 Zrotation Yrotation Xrotation
							End Site
							{
								OFFSET 0.04576 1.94782 -0.21839
							}
						}
					}
				}
				JOINT LeftCollar
				{
					OFFSET 0 0 0
					CHANNELS 3 Zrotation Yrotation Xrotation
					JOINT LeftShoulder
					{
						OFFSET 3.12424 1.09204 0.22226
CHANNELS 3 Zrotation Xrotation Yrotation
						JOINT LeftElbow
						{
OFFSET 0 -5.292770 0.000000
CHANNELS 3 Zrotation Xrotation Yrotation
							JOINT LeftWrist
							{
OFFSET 0 -2.852260 0.000000
CHANNELS 3 Zrotation Xrotation Yrotation
								JOINT lhand
								{
									OFFSET 0 0 0
CHANNELS 3 Zrotation Xrotation Yrotation
									JOINT LFingers
									{
OFFSET 0 -0.602100 0.000000
CHANNELS 3 Zrotation Xrotation Yrotation
										End Site
										{
OFFSET 0 -0.485430 0.000000
										}
									}
								}
								JOINT LThumb
								{
OFFSET 0 0.000000 0.000000
CHANNELS 3 Zrotation Xrotation Yrotation
									End Site
									{
OFFSET 0 -0.492840 0.492840
									}
								}
							}
						}
					}
				}
				JOINT RightCollar
				{
					OFFSET 0 0 0
					CHANNELS 3 Zrotation Yrotation Xrotation
					JOINT RightShoulder
					{
						OFFSET -2.91709 1.01504 0.30199
CHANNELS 3 Zrotation Xrotation Yrotation
						JOINT RightElbow
						{
OFFSET 0 -5.133040 0.000000
CHANNELS 3 Zrotation Xrotation Yrotation
							JOINT RightWrist
							{
OFFSET 0 -2.743050 0.000000
CHANNELS 3 Zrotation Xrotation Yrotation
								JOINT rhand
								{
									OFFSET 0 0 0
CHANNELS 3 Zrotation Xrotation Yrotation
									JOINT RFingers
									{
OFFSET 0 -0.767980 0.000000
CHANNELS 3 Zrotation Xrotation Yrotation
										End Site
										{
OFFSET 0 -0.619160 0.000000
										}
									}
								}
								JOINT RThumb
								{
OFFSET 0 0.000000 0.000000
CHANNELS 3 Zrotation Xrotation Yrotation
									End Site
									{
OFFSET 0 -0.628620 0.628620
									}
								}
							}
						}
					}
				}
			}
		}
	}
}
MOTION
Frames: 4
Frame Time: 0.008333333333333333
0.148200 17.363300 -0.242500 0.216300 2.608900 -0.998200 0.000000 0.000000 0.000000 -22.288000 -19.494800 9.345800 0.572100 4.843700 13.463400 0.312500 9.276800 -17.698600 1.355400 -7.369700 -20.815500 0.000000 0.000000 0.000000 19.153900 7.590000 14.282100 0.000000 -0.000000 0.000000 -0.012500 -9.093800 -13.181000 -0.985800 6.319800 -17.715300 -3.258800 -0.768400 -5.417800 0.129500 -0.840600 -1.114200 1.903000 -0.436600 1.938600 -23.738100 -9.690200 9.227300 18.167700 -17.253000 16.892200 8.982000 -9.291600 7.324000 0.000000 0.000000 0.000000 5.108200 -25.332100 -43.334100 153.673400 -37.529400 110.914100 -21.470500 -26.140400 -35.954600 0.000000 0.000000 0.000000 -7.125000 0.000000 0.000000 -58.617600 56.379000 21.337100 0.000000 0.000000 0.000000 -9.146600 -19.709300 28.836300 -153.885100 -37.322000 -111.042800 26.906800 19.803700 -12.115900 0.000000 0.000000 0.000000 7.125000 0.000000 -0.000000 34.608500 16.641700 29.258700
0.159883 17.366650 -0.223535 -0.012788 1.316439 -0.502536 0.000000 0.000000 0.000000 -21.871670 -18.437331 8.466563 0.594682 4.936945 13.728803 0.351468 9.166039 -18.045199 1.364080 -7.391713 -20.881507 0.000000 0.000000 0.000000 19.429468 9.031123 14.064759 0.000000 0.000000 0.000000 0.011682 -9.236324 -12.951727 -1.088229 6.629053 -18.621212 -2.921929 -0.584634 -5.459883 0.290923 -0.617171 -1.091080 1.895614 -0.324611 1.971563 -22.621009 -10.408634 7.605339 18.074343 -17.741694 15.945609 8.577024 -9.360069 7.286730 0.000000 0.000000 0.000000 1.445189 -19.399262 -48.294533 155.173819 -36.025730 111.812531 -20.240251 -26.821610 -34.671310 0.000000 0.000000 0.000000 -7.125000 0.000000 0.000000 -56.178505 55.830203 19.160333 0.000000 0.000000 0.000000 -7.292744 -23.169510 29.787396 -158.991344 -31.837812 -113.945176 25.471822 13.422613 -12.748459 0.000000 0.000000 0.000000 7.125000 0.000000 0.000000 33.769958 16.312663 28.467308
0.154502 17.363766 -0.183502 -0.202966 1.003777 -0.546268 0.000000 0.000000 0.000000 -21.695057 -18.033295 8.653606 0.588201 4.910369 13.653073 0.395168 8.991855 -18.374001 1.284010 -7.180369 -20.250976 0.000000 0.000000 0.000000 19.723960 9.252704 14.339205 0.000000 0.000000 0.000000 0.002601 -9.278627 -13.175434 -1.054491 6.529473 -18.328556 -3.020592 -0.541069 -6.280958 0.405181 -0.521794 -0.545858 2.069243 -0.299979 2.990191 -22.822355 -10.612099 7.979368 19.874111 -18.179587 14.167907 9.203892 -9.542382 6.940298 0.000000 0.000000 0.000000 0.231111 -16.263865 -48.598138 152.769933 -38.397474 110.358249 -15.967799 -19.730932 -33.775685 0.000000 0.000000 0.000000 -7.125000 0.000000 0.000000 -51.663180 56.141016 17.330868 0.000000 0.000000 0.000000 -6.815260 -22.487722 31.230853 -160.128192 -30.487603 -114.533846 29.847083 6.951814 -12.993939 0.000000 0.000000 0.000000 7.125000 0.000000 0.000000 35.724623 15.249119 32.273446
0.127301 17.358101 -0.181249 0.038888 1.814140 -0.972152 0.000000 0.000000 0.000000 -22.006082 -18.603107 9.458590 0.559851 4.792603 13.318058 0.350409 9.184409 -18.051667 1.361614 -7.385556 -20.862870 0.000000 0.000000 0.000000 19.527903 8.282776 14.637921 0.000000 0.000000 0.000000 -0.025149 -9.031594 -13.317152 -1.056192 6.534075 -18.342366 -3.057168 -0.372179 -6.028865 -0.183904 -0.283419 -0.461616 1.502857 -0.178284 2.918990 -22.681522 -10.482350 9.033653 19.737124 -18.273062 14.892285 9.209543 -9.651485 6.985784 0.000000 0.000000 0.000000 1.747829 -21.254188 -48.661339 153.453328 -37.743215 110.779564 -18.642409 -17.617125 -35.705862 0.000000 0.000000 0.000000 -7.125000 0.000000 0.000000 -56.020449 56.845092 20.576325 0.000000 0.000000 0.000000 -6.390403 -21.338266 30.262664 -159.594003 -31.128387 -114.260227 31.882390 9.211457 -13.848705 0.000000 0.000000 0.000000 7.125000 0.000000 0.000000 36.367881 13.963245 34.645341
